<svg width="512" height="512" fill="none" xmlns="http://www.w3.org/2000/svg"><path fill="#EEE" d="M0 0h512v512H0z"/><path d="M362.344 275.004c-1.126-29.943-5.629-59.887-5.629-89.83 0-24.399 4.503-49.906-4.503-73.196 0-2.218 1.126-5.545 1.126-7.763 2.252-12.199-37.15-5.545-42.779 5.545-3.377 3.327-5.629 6.654-4.503 11.091 0 1.109 1.126 2.218 1.126 3.327-7.881 35.488-18.012 70.977-29.27 105.356-4.503 13.309-10.132 26.617-14.635 39.925-6.755-12.199-13.509-24.398-19.138-37.707-15.761-38.815-29.27-77.631-48.408-114.229 2.252-16.635-36.024-15.526-43.905 0-9.006 18.854-7.88 37.707-4.503 58.778 3.378 23.29 4.503 45.47 4.503 68.76 0 44.36 4.503 88.721 4.503 133.082-4.503 4.436-5.628 9.981-1.125 15.526l6.754 6.654c10.132 7.763 39.402 1.109 39.402-14.417 0-46.579-3.377-92.049-4.503-138.627V233.97c1.126 1.109 1.126 3.328 2.251 4.437 6.755 17.744 14.635 35.488 24.767 52.123 10.132 16.636 14.635 34.38 20.264 52.124-2.252 2.218-3.377 5.545-2.252 7.763 0 2.218 1.126 3.327 3.378 4.436 6.754 6.655 21.389 3.328 28.144 0 3.377-1.109 6.754-3.327 9.006-4.436 3.377-2.218 10.132-7.763 7.88-13.308 0-1.109-1.125-2.218-1.125-3.327 5.628-14.417 7.88-28.834 11.257-44.361 3.378-15.526 9.006-31.052 14.635-46.578 1.126 6.654 1.126 14.417 2.252 21.071 2.251 28.834 0 56.56 0 85.394 0 9.982 1.125 17.745 2.251 27.726 1.126 3.327 4.503 19.962 3.377 21.071-6.754 6.654-4.503 14.417 4.504 15.526 10.131 2.219 23.641-1.109 31.521-7.763 13.509-12.199 6.755-32.161 4.503-47.687-6.755-26.617-1.126-56.56-1.126-83.177Z" fill="#000"/></svg>